<svg width="360" height="309" viewBox="0 0 360 309" fill="none" xmlns="http://www.w3.org/2000/svg">
<path fill-rule="evenodd" clip-rule="evenodd" d="M180.132 101.437H178.546V101.34L176.644 102.599C160.683 78.4868 112.158 30.4682 46.4286 30.8777L46.4128 28.3347C29.581 63.5017 33.2388 156.323 180.132 254.547V254.686L180.236 254.617L180.341 254.686V254.547C327.075 156.429 330.883 63.7021 314.114 28.4488L314.099 30.8777C248.37 30.4682 199.844 78.4868 183.884 102.599L182.128 101.437H180.341V110.912V111.474H180.602V111.473C232.756 65.751 323.742 0.946828 270.461 107.509C259.279 127.515 225.986 175.211 181.718 207.14V207.147H181.708C181.34 207.412 180.972 207.676 180.602 207.94V207.147L180.341 207.147V254.547L180.236 254.617L180.132 254.547V207.147L179.87 207.147V207.94C135.046 176.013 101.288 127.683 90.0111 107.509C36.73 0.946824 127.717 65.751 179.87 111.473V111.474H180.132V110.912V101.437ZM180.132 39.5536L180.132 91.9645C160.588 66.0007 113.72 23.4869 50.8479 21.9197C86.7026 -22.7694 151.331 14.2598 180.236 39.4626L180.132 39.5536ZM180.236 39.4626C209.142 14.2596 273.771 -22.7701 309.626 21.921C246.721 23.5127 199.846 66.0882 180.341 92.0377L180.341 39.5536L180.236 39.4626Z" fill="#009355"/>
<path d="M180.132 101.437H180.632V100.937H180.132V101.437ZM178.546 101.437H178.046V101.937H178.546V101.437ZM178.546 101.34H179.046V100.409L178.27 100.923L178.546 101.34ZM176.644 102.599L176.227 102.875L176.503 103.292L176.92 103.016L176.644 102.599ZM46.4286 30.8777L45.9286 30.8808L45.9317 31.3808L46.4317 31.3777L46.4286 30.8777ZM46.4128 28.3347L46.9127 28.3316L45.9618 28.1188L46.4128 28.3347ZM180.132 254.686H179.632V255.622L180.41 255.102L180.132 254.686ZM180.341 254.686L180.063 255.102L180.841 255.622V254.686H180.341ZM314.114 28.4488L314.566 28.234L313.614 28.4457L314.114 28.4488ZM314.099 30.8777L314.096 31.3777L314.596 31.3808L314.599 30.8808L314.099 30.8777ZM183.884 102.599L183.608 103.016L184.025 103.292L184.301 102.875L183.884 102.599ZM182.128 101.437L182.404 101.02L182.279 100.937H182.128V101.437ZM180.341 101.437V100.937H179.841V101.437H180.341ZM180.341 111.474H179.841V111.974H180.341V111.474ZM180.602 111.474V111.974H181.102V111.474H180.602ZM180.602 111.473L180.273 111.097L180.102 111.247V111.473H180.602ZM270.461 107.509L270.898 107.753L270.903 107.743L270.909 107.733L270.461 107.509ZM181.718 207.14L181.426 206.734L181.218 206.884V207.14H181.718ZM181.718 207.147V207.647H182.218V207.147H181.718ZM181.708 207.147V206.647H181.547L181.416 206.741L181.708 207.147ZM180.602 207.94H180.102V208.91L180.892 208.347L180.602 207.94ZM180.602 207.147H181.102V206.647L180.602 206.647L180.602 207.147ZM180.341 207.147L180.341 206.647L179.841 206.647V207.147H180.341ZM180.132 207.147H180.632V206.647L180.132 206.647L180.132 207.147ZM179.87 207.147L179.87 206.647L179.37 206.647V207.147H179.87ZM179.87 207.94L179.58 208.347L180.37 208.91V207.94H179.87ZM90.0111 107.509L89.5639 107.733L89.569 107.743L89.5746 107.753L90.0111 107.509ZM179.87 111.473H180.37V111.247L180.2 111.097L179.87 111.473ZM179.87 111.474H179.37V111.974H179.87V111.474ZM180.132 111.474V111.974H180.632V111.474H180.132ZM180.132 91.9645L179.732 92.2652L180.632 93.4601L180.632 91.9645L180.132 91.9645ZM180.132 39.5536L179.803 39.1769L179.632 39.3264L179.632 39.5536L180.132 39.5536ZM50.8479 21.9197L50.4579 21.6068L49.826 22.3944L50.8354 22.4195L50.8479 21.9197ZM309.626 21.921L309.638 22.4209L310.647 22.3954L310.016 21.6082L309.626 21.921ZM180.341 92.0377L179.841 92.0377L179.841 93.5351L180.74 92.3382L180.341 92.0377ZM180.341 39.5536L180.841 39.5536L180.841 39.3264L180.669 39.1769L180.341 39.5536ZM180.132 100.937H178.546V101.937H180.132V100.937ZM179.046 101.437V101.34H178.046V101.437H179.046ZM178.27 100.923L176.368 102.182L176.92 103.016L178.821 101.757L178.27 100.923ZM177.061 102.323C169.044 90.2124 152.876 72.1321 130.478 57.1273C108.076 42.12 79.4155 30.1722 46.4255 30.3777L46.4317 31.3777C79.1708 31.1737 107.638 43.0304 129.921 57.9581C152.208 72.8882 168.283 90.8732 176.227 102.875L177.061 102.323ZM46.9286 30.8746L46.9127 28.3316L45.9128 28.3378L45.9286 30.8808L46.9286 30.8746ZM45.9618 28.1188C28.9741 63.6116 32.864 156.674 179.854 254.962L180.41 254.131C33.6136 155.972 30.1879 63.3919 46.8638 28.5505L45.9618 28.1188ZM179.632 254.547V254.686H180.632V254.547H179.632ZM180.41 255.102L180.514 255.032L179.958 254.201L179.854 254.271L180.41 255.102ZM179.958 255.032L180.063 255.102L180.618 254.271L180.514 254.201L179.958 255.032ZM180.841 254.686V254.547H179.841V254.686H180.841ZM180.618 254.962C327.45 156.78 331.49 63.8126 314.566 28.234L313.663 28.6636C330.277 63.5916 326.7 156.079 180.063 254.131L180.618 254.962ZM313.614 28.4457L313.599 30.8746L314.599 30.8808L314.614 28.4519L313.614 28.4457ZM314.102 30.3777C281.112 30.1722 252.452 42.1201 230.05 57.1273C207.651 72.1321 191.483 90.2124 183.467 102.323L184.301 102.875C192.245 90.8732 208.32 72.8882 230.606 57.9581C252.89 43.0304 281.357 31.1737 314.096 31.3777L314.102 30.3777ZM184.16 102.182L182.404 101.02L181.852 101.854L183.608 103.016L184.16 102.182ZM182.128 100.937H180.341V101.937H182.128V100.937ZM179.841 101.437V110.912H180.841V101.437H179.841ZM179.841 110.912V111.474H180.841V110.912H179.841ZM180.341 111.974H180.602V110.974H180.341V111.974ZM181.102 111.474V111.473H180.102V111.474H181.102ZM180.932 111.849C193.962 100.426 209.414 87.8137 224.43 76.985C239.455 66.1495 254.009 57.1254 265.248 52.8518C270.876 50.7114 275.601 49.7916 279.114 50.3719C280.858 50.66 282.288 51.3155 283.39 52.3624C284.492 53.4097 285.299 54.88 285.745 56.853C286.642 60.8215 286.061 66.7504 283.558 75.0649C281.06 83.364 276.668 93.9783 270.014 107.285L270.909 107.733C277.575 94.399 281.995 83.7281 284.516 75.3531C287.032 66.9935 287.676 60.8596 286.721 56.6326C286.24 54.5079 285.352 52.8472 284.079 51.6374C282.805 50.4273 281.179 49.6995 279.277 49.3852C275.496 48.7607 270.566 49.7595 264.892 51.9171C253.525 56.2396 238.883 65.3293 223.845 76.1739C208.798 87.0254 193.32 99.659 180.273 111.097L180.932 111.849ZM270.025 107.265C258.865 127.231 225.616 174.862 181.426 206.734L182.011 207.545C226.356 175.561 259.692 127.8 270.898 107.753L270.025 107.265ZM181.218 207.14V207.147H182.218V207.14H181.218ZM181.718 206.647H181.708V207.647H181.718V206.647ZM181.416 206.741C181.049 207.006 180.681 207.27 180.312 207.532L180.892 208.347C181.263 208.083 181.632 207.818 182.001 207.552L181.416 206.741ZM181.102 207.94V207.147H180.102V207.94H181.102ZM180.602 206.647L180.341 206.647L180.341 207.647L180.602 207.647L180.602 206.647ZM179.841 207.147V254.547H180.841V207.147H179.841ZM180.063 254.131L179.958 254.201L180.514 255.032L180.618 254.963L180.063 254.131ZM180.514 254.201L180.41 254.131L179.854 254.963L179.958 255.032L180.514 254.201ZM180.632 254.547V207.147H179.632V254.547H180.632ZM180.132 206.647L179.87 206.647L179.87 207.647L180.132 207.647L180.132 206.647ZM179.37 207.147V207.94H180.37V207.147H179.37ZM180.16 207.532C135.416 175.662 101.701 127.399 90.4475 107.265L89.5746 107.753C100.874 127.968 134.677 176.364 179.58 208.347L180.16 207.532ZM90.4583 107.285C83.8048 93.9783 79.4124 83.364 76.9144 75.0649C74.4118 66.7504 73.8303 60.8215 74.7272 56.853C75.1731 54.88 75.9803 53.4097 77.0826 52.3624C78.1845 51.3155 79.6143 50.66 81.3586 50.3719C84.8709 49.7916 89.596 50.7114 95.2249 52.8518C106.463 57.1254 121.017 66.1495 136.042 76.985C151.058 87.8137 166.511 100.426 179.54 111.849L180.2 111.097C167.152 99.659 151.674 87.0254 136.627 76.1739C121.589 65.3293 106.948 56.2396 95.5803 51.9171C89.9064 49.7595 84.976 48.7607 81.1956 49.3852C79.2935 49.6995 77.6675 50.4273 76.3938 51.6374C75.1204 52.8472 74.232 54.5079 73.7518 56.6326C72.7965 60.8596 73.4406 66.9935 75.9568 75.3531C78.4776 83.7281 82.8971 94.399 89.5639 107.733L90.4583 107.285ZM179.37 111.473V111.474H180.37V111.473H179.37ZM179.87 111.974H180.132V110.974H179.87V111.974ZM180.632 111.474V110.912H179.632V111.474H180.632ZM180.632 110.912V101.437H179.632V110.912H180.632ZM180.632 91.9645L180.632 39.5536L179.632 39.5536L179.632 91.9645L180.632 91.9645ZM50.8354 22.4195C113.493 23.9813 160.235 66.3629 179.732 92.2652L180.531 91.6638C160.941 65.6385 113.948 22.9924 50.8604 21.4198L50.8354 22.4195ZM180.565 39.0857C166.078 26.4543 142.63 10.8485 118.284 4.00039C93.9244 -2.85123 68.5585 -0.953689 50.4579 21.6068L51.2379 22.2326C68.992 0.104018 93.8678 -1.82836 118.013 4.96303C142.17 11.758 165.49 27.2681 179.908 39.8394L180.565 39.0857ZM180.461 39.9304L180.565 39.8393L179.907 39.0859L179.803 39.1769L180.461 39.9304ZM310.016 21.6082C291.915 -0.953372 266.549 -2.85133 242.19 4.00019C217.843 10.8481 194.395 26.4542 179.908 39.0857L180.565 39.8394C194.983 27.268 218.302 11.7577 242.46 4.96283C266.606 -1.82845 291.482 0.104328 309.236 22.2339L310.016 21.6082ZM180.74 92.3382C200.199 66.4502 246.949 24.0071 309.638 22.4209L309.613 21.4212C246.494 23.0183 199.492 65.7262 179.941 91.7373L180.74 92.3382ZM179.841 39.5536L179.841 92.0377L180.841 92.0377L180.841 39.5536L179.841 39.5536ZM179.907 39.8393L180.012 39.9304L180.669 39.1769L180.565 39.0858L179.907 39.8393Z" fill="#009355"/>
<path d="M179.867 38.2618C107.134 -21.5737 61.9935 3.99206 48.5146 24.2544C114.059 25.9456 163.393 72.3554 179.867 95.3489C227.651 35.9363 287.346 23.1973 311.22 24.2544C274.642 -23.7409 208.411 13.5946 179.867 38.2618Z" fill="#A8CF45" stroke="#A8CF45" stroke-width="2"/>
<path d="M236.162 250.49C200.43 263.599 188.854 294.01 187.532 307.577C223.053 307.577 249.729 299.648 258.627 295.684C324.594 271.792 352.362 222.828 358 201.332H345.314C326.074 239.39 279.506 260.533 258.627 266.348L275.277 251.283C286.694 240.711 279.329 230.845 274.22 227.233C270.625 235.478 247.35 246.173 236.162 250.49Z" fill="#1F5CA9" stroke="#1F5CA9" stroke-width="2"/>
<path d="M123.838 250.752C159.57 263.861 171.146 294.272 172.468 307.839C136.947 307.839 110.271 299.91 101.373 295.946C35.4065 272.054 7.63828 223.089 2.00006 201.594L14.686 201.594C33.9264 239.652 80.4945 260.795 101.373 266.609L84.7232 251.545C73.3058 240.973 80.6707 231.106 85.7803 227.494C89.3747 235.74 112.65 246.435 123.838 250.752Z" fill="#1F5CA9" stroke="#1F5CA9" stroke-width="2"/>
</svg>
